<svg  viewBox="0 0 16 16" fill="none" xmlns="http://www.w3.org/2000/svg">
<g >
<path d="M1.14307 7.99997C1.14307 4.21287 4.21311 1.14282 8.00021 1.14282C11.7873 1.14282 14.8574 4.21287 14.8574 7.99997C14.8574 11.7871 11.7873 14.8571 8.00021 14.8571C4.21311 14.8571 1.14307 11.7871 1.14307 7.99997Z" fill="#0F5716" fill-opacity="0.3" stroke="#5A9761"/>
<path d="M8 0V16M0 8H16" stroke="#0F5716" stroke-opacity="0.1" stroke-width="0.5"/>
<path d="M2.28564 7.99993C2.28564 4.84402 4.84402 2.28564 7.99993 2.28564C11.1558 2.28564 13.7142 4.84402 13.7142 7.99993C13.7142 11.1558 11.1558 13.7142 7.99993 13.7142C4.84402 13.7142 2.28564 11.1558 2.28564 7.99993Z" stroke="#0F5716" stroke-opacity="0.1" stroke-width="0.5"/>
<path d="M3.42871 7.9999C3.42871 5.47517 5.47541 3.42847 8.00014 3.42847C10.5249 3.42847 12.5716 5.47517 12.5716 7.9999C12.5716 10.5246 10.5249 12.5713 8.00014 12.5713C5.47541 12.5713 3.42871 10.5246 3.42871 7.9999Z" stroke="#0F5716" stroke-opacity="0.1" stroke-width="0.5"/>
<path d="M4.57129 8.0001C4.57129 6.10656 6.10631 4.57153 7.99986 4.57153C9.89341 4.57153 11.4284 6.10656 11.4284 8.0001C11.4284 9.89365 9.89341 11.4287 7.99986 11.4287C6.10631 11.4287 4.57129 9.89365 4.57129 8.0001Z" stroke="#0F5716" stroke-opacity="0.1" stroke-width="0.5"/>
<path d="M5.71436 8.00007C5.71436 6.7377 6.7377 5.71436 8.00007 5.71436C9.26243 5.71436 10.2858 6.7377 10.2858 8.00007C10.2858 9.26243 9.26243 10.2858 8.00007 10.2858C6.7377 10.2858 5.71436 9.26243 5.71436 8.00007Z" stroke="#0F5716" stroke-opacity="0.1" stroke-width="0.5"/>
<path d="M6.85693 8.00003C6.85693 7.36885 7.36861 6.85718 7.99979 6.85718C8.63097 6.85718 9.14265 7.36885 9.14265 8.00003C9.14265 8.63122 8.63097 9.14289 7.99979 9.14289C7.36861 9.14289 6.85693 8.63122 6.85693 8.00003Z" stroke="#0F5716" stroke-opacity="0.1" stroke-width="0.5"/>
<path d="M7.71436 8.00007C7.71436 7.84227 7.84227 7.71436 8.00007 7.71436C8.15787 7.71436 8.28578 7.84227 8.28578 8.00007C8.28578 8.15787 8.15787 8.28578 8.00007 8.28578C7.84227 8.28578 7.71436 8.15787 7.71436 8.00007Z" fill="#0F5716" fill-opacity="0.1" stroke="#0F5716" stroke-opacity="0.1" stroke-width="0.5"/>
<path d="M8 15V8H15C15 11.8646 11.8646 15 8 15Z" fill="url(#paint0_linear_1301_7823)"/>
<g filter="url(#filter0_d_1301_7823)">
<path d="M11.2153 12.5715V9.71436H11.385V12.5715H11.2153ZM11.2816 12.2311C11.1402 12.2311 11.0051 12.2068 10.8761 12.1581C10.7471 12.1075 10.6455 12.0426 10.5713 11.9636L10.6694 11.7265C10.74 11.7974 10.8301 11.8562 10.9397 11.9028C11.0492 11.9494 11.1632 11.9727 11.2816 11.9727C11.3894 11.9727 11.4768 11.9585 11.544 11.9302C11.6111 11.9018 11.6606 11.8633 11.6924 11.8147C11.7242 11.764 11.7401 11.7073 11.7401 11.6444C11.7401 11.5715 11.7189 11.5127 11.6765 11.4682C11.6359 11.4236 11.582 11.3881 11.5148 11.3618C11.4495 11.3334 11.377 11.3091 11.2975 11.2888C11.218 11.2686 11.1376 11.2453 11.0563 11.2189C10.9768 11.1905 10.9035 11.1551 10.8363 11.1125C10.771 11.07 10.7179 11.0132 10.6773 10.9423C10.6367 10.8694 10.6163 10.7762 10.6163 10.6627C10.6163 10.5533 10.6411 10.453 10.6906 10.3618C10.7418 10.2686 10.8195 10.1946 10.9238 10.1399C11.0298 10.0831 11.1641 10.0548 11.3267 10.0548C11.4344 10.0548 11.5413 10.071 11.6474 10.1034C11.7534 10.1358 11.8453 10.1824 11.923 10.2432L11.8355 10.4864C11.756 10.4256 11.6721 10.382 11.5837 10.3557C11.4954 10.3273 11.4097 10.3131 11.3267 10.3131C11.2224 10.3131 11.1367 10.3283 11.0696 10.3587C11.0024 10.3891 10.9529 10.4297 10.9211 10.4803C10.8911 10.531 10.8761 10.5877 10.8761 10.6505C10.8761 10.7255 10.8964 10.7853 10.937 10.8299C10.9795 10.8744 11.0333 10.9099 11.0987 10.9362C11.1659 10.9626 11.2392 10.9869 11.3187 11.0092C11.3982 11.0295 11.4777 11.0528 11.5572 11.0791C11.6385 11.1054 11.7118 11.1399 11.7772 11.1824C11.8444 11.225 11.8983 11.2817 11.9389 11.3527C11.9795 11.4236 11.9999 11.5148 11.9999 11.6262C11.9999 11.7336 11.9742 11.8339 11.923 11.9271C11.8718 12.0183 11.7922 12.0923 11.6845 12.149C11.5784 12.2037 11.4442 12.2311 11.2816 12.2311Z" fill="white"/>
</g>
</g>
<defs>
<filter id="filter0_d_1301_7823" x="7.57129" y="6.71436" width="7.42871" height="8.85718" filterUnits="userSpaceOnUse" color-interpolation-filters="sRGB">
<feFlood flood-opacity="0" result="BackgroundImageFix"/>
<feColorMatrix in="SourceAlpha" type="matrix" values="0 0 0 0 0 0 0 0 0 0 0 0 0 0 0 0 0 0 127 0" result="hardAlpha"/>
<feOffset/>
<feGaussianBlur stdDeviation="1.5"/>
<feComposite in2="hardAlpha" operator="out"/>
<feColorMatrix type="matrix" values="0 0 0 0 0.721569 0 0 0 0 0.803922 0 0 0 0 0.729412 0 0 0 1 0"/>
<feBlend mode="normal" in2="BackgroundImageFix" result="effect1_dropShadow_1301_7823"/>
<feBlend mode="normal" in="SourceGraphic" in2="effect1_dropShadow_1301_7823" result="shape"/>
</filter>
<linearGradient id="paint0_linear_1301_7823" x1="8" y1="15" x2="15" y2="8" gradientUnits="userSpaceOnUse">
<stop stop-color="#178222"/>
<stop offset="1" stop-color="#808080" stop-opacity="0"/>
</linearGradient>
</defs>
</svg>
